<mxfile host="app.diagrams.net" agent="Mozilla/5.0 (Windows NT 10.0; Win64; x64) AppleWebKit/537.36 (KHTML, like Gecko) Chrome/130.0.0.0 Safari/537.36" version="24.7.17">
  <diagram name="PÃ¡gina-1" id="yf8zElIW5PX1kTVhdUTy">
    <mxGraphModel grid="1" page="1" gridSize="10" guides="1" tooltips="1" connect="1" arrows="1" fold="1" pageScale="1" pageWidth="1400" pageHeight="850" math="0" shadow="0">
      <root>
        <mxCell id="0" />
        <mxCell id="1" parent="0" />
        <mxCell id="cyycLlXmvvTg0N1QXvkA-2" value="Unidad academica" style="whiteSpace=wrap;html=1;align=center;" vertex="1" parent="1">
          <mxGeometry x="190" y="15" width="100" height="40" as="geometry" />
        </mxCell>
        <mxCell id="cyycLlXmvvTg0N1QXvkA-3" value="Centro computo" style="whiteSpace=wrap;html=1;align=center;" vertex="1" parent="1">
          <mxGeometry x="190" y="315" width="100" height="40" as="geometry" />
        </mxCell>
        <mxCell id="cyycLlXmvvTg0N1QXvkA-4" value="Computadora" style="whiteSpace=wrap;html=1;align=center;" vertex="1" parent="1">
          <mxGeometry x="710" y="315" width="100" height="40" as="geometry" />
        </mxCell>
        <mxCell id="cyycLlXmvvTg0N1QXvkA-5" value="Estudiante" style="whiteSpace=wrap;html=1;align=center;" vertex="1" parent="1">
          <mxGeometry x="710" y="635" width="100" height="40" as="geometry" />
        </mxCell>
        <mxCell id="cyycLlXmvvTg0N1QXvkA-6" value="Bloqueo" style="whiteSpace=wrap;html=1;align=center;" vertex="1" parent="1">
          <mxGeometry x="1180" y="635" width="100" height="40" as="geometry" />
        </mxCell>
        <mxCell id="cyycLlXmvvTg0N1QXvkA-7" value="Carrera" style="whiteSpace=wrap;html=1;align=center;" vertex="1" parent="1">
          <mxGeometry x="190" y="635" width="100" height="40" as="geometry" />
        </mxCell>
        <mxCell id="cyycLlXmvvTg0N1QXvkA-9" value="Tiene" style="shape=rhombus;perimeter=rhombusPerimeter;whiteSpace=wrap;html=1;align=center;" vertex="1" parent="1">
          <mxGeometry x="180" y="155" width="120" height="60" as="geometry" />
        </mxCell>
        <mxCell id="cyycLlXmvvTg0N1QXvkA-10" value="" style="endArrow=none;html=1;rounded=0;exitX=0.5;exitY=1;exitDx=0;exitDy=0;entryX=0.5;entryY=0;entryDx=0;entryDy=0;" edge="1" parent="1" source="cyycLlXmvvTg0N1QXvkA-2" target="cyycLlXmvvTg0N1QXvkA-9">
          <mxGeometry relative="1" as="geometry">
            <mxPoint x="10" y="445" as="sourcePoint" />
            <mxPoint x="170" y="445" as="targetPoint" />
          </mxGeometry>
        </mxCell>
        <mxCell id="cyycLlXmvvTg0N1QXvkA-12" value="" style="endArrow=none;html=1;rounded=0;exitX=0.5;exitY=1;exitDx=0;exitDy=0;entryX=0.5;entryY=0;entryDx=0;entryDy=0;" edge="1" parent="1" source="cyycLlXmvvTg0N1QXvkA-9" target="cyycLlXmvvTg0N1QXvkA-3">
          <mxGeometry relative="1" as="geometry">
            <mxPoint x="-200" y="345" as="sourcePoint" />
            <mxPoint x="-60" y="345" as="targetPoint" />
          </mxGeometry>
        </mxCell>
        <mxCell id="cyycLlXmvvTg0N1QXvkA-17" value="1..1" style="text;strokeColor=none;fillColor=none;spacingLeft=4;spacingRight=4;overflow=hidden;rotatable=0;points=[[0,0.5],[1,0.5]];portConstraint=eastwest;fontSize=12;whiteSpace=wrap;html=1;" vertex="1" parent="1">
          <mxGeometry x="240" y="55" width="40" height="30" as="geometry" />
        </mxCell>
        <mxCell id="cyycLlXmvvTg0N1QXvkA-18" value="1..N" style="text;strokeColor=none;fillColor=none;spacingLeft=4;spacingRight=4;overflow=hidden;rotatable=0;points=[[0,0.5],[1,0.5]];portConstraint=eastwest;fontSize=12;whiteSpace=wrap;html=1;" vertex="1" parent="1">
          <mxGeometry x="240" y="285" width="40" height="30" as="geometry" />
        </mxCell>
        <mxCell id="cyycLlXmvvTg0N1QXvkA-19" value="1:N" style="text;strokeColor=none;fillColor=none;spacingLeft=4;spacingRight=4;overflow=hidden;rotatable=0;points=[[0,0.5],[1,0.5]];portConstraint=eastwest;fontSize=12;whiteSpace=wrap;html=1;" vertex="1" parent="1">
          <mxGeometry x="300" y="170" width="30" height="30" as="geometry" />
        </mxCell>
        <mxCell id="cyycLlXmvvTg0N1QXvkA-20" value="Tiene" style="shape=rhombus;perimeter=rhombusPerimeter;whiteSpace=wrap;html=1;align=center;" vertex="1" parent="1">
          <mxGeometry x="440" y="305" width="120" height="60" as="geometry" />
        </mxCell>
        <mxCell id="cyycLlXmvvTg0N1QXvkA-21" value="" style="endArrow=none;html=1;rounded=0;exitX=1;exitY=0.5;exitDx=0;exitDy=0;entryX=0;entryY=0.5;entryDx=0;entryDy=0;" edge="1" parent="1" source="cyycLlXmvvTg0N1QXvkA-3" target="cyycLlXmvvTg0N1QXvkA-20">
          <mxGeometry relative="1" as="geometry">
            <mxPoint x="290" y="335" as="sourcePoint" />
            <mxPoint x="430" y="335" as="targetPoint" />
          </mxGeometry>
        </mxCell>
        <mxCell id="cyycLlXmvvTg0N1QXvkA-22" value="" style="endArrow=none;html=1;rounded=0;exitX=1;exitY=0.5;exitDx=0;exitDy=0;entryX=0;entryY=0.5;entryDx=0;entryDy=0;" edge="1" parent="1" source="cyycLlXmvvTg0N1QXvkA-20" target="cyycLlXmvvTg0N1QXvkA-4">
          <mxGeometry relative="1" as="geometry">
            <mxPoint x="550" y="335" as="sourcePoint" />
            <mxPoint x="690" y="335" as="targetPoint" />
          </mxGeometry>
        </mxCell>
        <mxCell id="cyycLlXmvvTg0N1QXvkA-23" value="1..1" style="text;strokeColor=none;fillColor=none;spacingLeft=4;spacingRight=4;overflow=hidden;rotatable=0;points=[[0,0.5],[1,0.5]];portConstraint=eastwest;fontSize=12;whiteSpace=wrap;html=1;" vertex="1" parent="1">
          <mxGeometry x="290" y="315" width="40" height="30" as="geometry" />
        </mxCell>
        <mxCell id="cyycLlXmvvTg0N1QXvkA-24" value="1..N" style="text;strokeColor=none;fillColor=none;spacingLeft=4;spacingRight=4;overflow=hidden;rotatable=0;points=[[0,0.5],[1,0.5]];portConstraint=eastwest;fontSize=12;whiteSpace=wrap;html=1;" vertex="1" parent="1">
          <mxGeometry x="670" y="315" width="40" height="30" as="geometry" />
        </mxCell>
        <mxCell id="cyycLlXmvvTg0N1QXvkA-25" value="1:N" style="text;strokeColor=none;fillColor=none;spacingLeft=4;spacingRight=4;overflow=hidden;rotatable=0;points=[[0,0.5],[1,0.5]];portConstraint=eastwest;fontSize=12;whiteSpace=wrap;html=1;" vertex="1" parent="1">
          <mxGeometry x="485" y="275" width="30" height="30" as="geometry" />
        </mxCell>
        <mxCell id="cyycLlXmvvTg0N1QXvkA-26" value="Reservada" style="shape=rhombus;perimeter=rhombusPerimeter;whiteSpace=wrap;html=1;align=center;" vertex="1" parent="1">
          <mxGeometry x="700" y="460" width="120" height="60" as="geometry" />
        </mxCell>
        <mxCell id="cyycLlXmvvTg0N1QXvkA-27" value="" style="endArrow=none;html=1;rounded=0;exitX=0.5;exitY=1;exitDx=0;exitDy=0;entryX=0.5;entryY=0;entryDx=0;entryDy=0;" edge="1" parent="1" source="cyycLlXmvvTg0N1QXvkA-4" target="cyycLlXmvvTg0N1QXvkA-26">
          <mxGeometry relative="1" as="geometry">
            <mxPoint x="500" y="445" as="sourcePoint" />
            <mxPoint x="660" y="445" as="targetPoint" />
          </mxGeometry>
        </mxCell>
        <mxCell id="cyycLlXmvvTg0N1QXvkA-28" value="" style="endArrow=none;html=1;rounded=0;exitX=0.5;exitY=1;exitDx=0;exitDy=0;entryX=0.5;entryY=0;entryDx=0;entryDy=0;" edge="1" parent="1" source="cyycLlXmvvTg0N1QXvkA-26" target="cyycLlXmvvTg0N1QXvkA-5">
          <mxGeometry relative="1" as="geometry">
            <mxPoint x="770" y="365" as="sourcePoint" />
            <mxPoint x="770" y="470" as="targetPoint" />
          </mxGeometry>
        </mxCell>
        <mxCell id="cyycLlXmvvTg0N1QXvkA-29" value="N:1" style="text;strokeColor=none;fillColor=none;spacingLeft=4;spacingRight=4;overflow=hidden;rotatable=0;points=[[0,0.5],[1,0.5]];portConstraint=eastwest;fontSize=12;whiteSpace=wrap;html=1;" vertex="1" parent="1">
          <mxGeometry x="820" y="475" width="30" height="30" as="geometry" />
        </mxCell>
        <mxCell id="cyycLlXmvvTg0N1QXvkA-30" value="1..N" style="text;strokeColor=none;fillColor=none;spacingLeft=4;spacingRight=4;overflow=hidden;rotatable=0;points=[[0,0.5],[1,0.5]];portConstraint=eastwest;fontSize=12;whiteSpace=wrap;html=1;" vertex="1" parent="1">
          <mxGeometry x="760" y="355" width="40" height="30" as="geometry" />
        </mxCell>
        <mxCell id="cyycLlXmvvTg0N1QXvkA-31" value="1..1" style="text;strokeColor=none;fillColor=none;spacingLeft=4;spacingRight=4;overflow=hidden;rotatable=0;points=[[0,0.5],[1,0.5]];portConstraint=eastwest;fontSize=12;whiteSpace=wrap;html=1;" vertex="1" parent="1">
          <mxGeometry x="760" y="605" width="30" height="30" as="geometry" />
        </mxCell>
        <mxCell id="cyycLlXmvvTg0N1QXvkA-41" value="Pertenece" style="shape=rhombus;perimeter=rhombusPerimeter;whiteSpace=wrap;html=1;align=center;" vertex="1" parent="1">
          <mxGeometry x="450" y="625" width="120" height="60" as="geometry" />
        </mxCell>
        <mxCell id="cyycLlXmvvTg0N1QXvkA-42" value="Recibe" style="shape=rhombus;perimeter=rhombusPerimeter;whiteSpace=wrap;html=1;align=center;" vertex="1" parent="1">
          <mxGeometry x="960" y="625" width="120" height="60" as="geometry" />
        </mxCell>
        <mxCell id="cyycLlXmvvTg0N1QXvkA-43" value="" style="endArrow=none;html=1;rounded=0;exitX=1;exitY=0.5;exitDx=0;exitDy=0;entryX=0;entryY=0.5;entryDx=0;entryDy=0;" edge="1" parent="1" source="cyycLlXmvvTg0N1QXvkA-7" target="cyycLlXmvvTg0N1QXvkA-41">
          <mxGeometry relative="1" as="geometry">
            <mxPoint x="770" y="530" as="sourcePoint" />
            <mxPoint x="770" y="645" as="targetPoint" />
          </mxGeometry>
        </mxCell>
        <mxCell id="cyycLlXmvvTg0N1QXvkA-44" value="" style="endArrow=none;html=1;rounded=0;exitX=1;exitY=0.5;exitDx=0;exitDy=0;entryX=0;entryY=0.5;entryDx=0;entryDy=0;" edge="1" parent="1" source="cyycLlXmvvTg0N1QXvkA-41" target="cyycLlXmvvTg0N1QXvkA-5">
          <mxGeometry relative="1" as="geometry">
            <mxPoint x="300" y="665" as="sourcePoint" />
            <mxPoint x="460" y="665" as="targetPoint" />
          </mxGeometry>
        </mxCell>
        <mxCell id="cyycLlXmvvTg0N1QXvkA-45" value="" style="endArrow=none;html=1;rounded=0;exitX=1;exitY=0.5;exitDx=0;exitDy=0;entryX=0;entryY=0.5;entryDx=0;entryDy=0;" edge="1" parent="1" source="cyycLlXmvvTg0N1QXvkA-5" target="cyycLlXmvvTg0N1QXvkA-42">
          <mxGeometry relative="1" as="geometry">
            <mxPoint x="580" y="665" as="sourcePoint" />
            <mxPoint x="720" y="665" as="targetPoint" />
          </mxGeometry>
        </mxCell>
        <mxCell id="cyycLlXmvvTg0N1QXvkA-46" value="" style="endArrow=none;html=1;rounded=0;entryX=0;entryY=0.5;entryDx=0;entryDy=0;exitX=1;exitY=0.5;exitDx=0;exitDy=0;" edge="1" parent="1" source="cyycLlXmvvTg0N1QXvkA-42" target="cyycLlXmvvTg0N1QXvkA-6">
          <mxGeometry relative="1" as="geometry">
            <mxPoint x="1085" y="665" as="sourcePoint" />
            <mxPoint x="970" y="665" as="targetPoint" />
          </mxGeometry>
        </mxCell>
        <mxCell id="cyycLlXmvvTg0N1QXvkA-48" value="Software" style="ellipse;whiteSpace=wrap;html=1;align=center;" vertex="1" parent="1">
          <mxGeometry x="895" y="315" width="100" height="40" as="geometry" />
        </mxCell>
        <mxCell id="cyycLlXmvvTg0N1QXvkA-49" value="" style="endArrow=none;html=1;rounded=0;exitX=1;exitY=0.5;exitDx=0;exitDy=0;entryX=0;entryY=0.5;entryDx=0;entryDy=0;" edge="1" parent="1" source="cyycLlXmvvTg0N1QXvkA-4" target="cyycLlXmvvTg0N1QXvkA-48">
          <mxGeometry relative="1" as="geometry">
            <mxPoint x="570" y="345" as="sourcePoint" />
            <mxPoint x="720" y="345" as="targetPoint" />
          </mxGeometry>
        </mxCell>
        <mxCell id="cyycLlXmvvTg0N1QXvkA-50" value="Nombre" style="ellipse;whiteSpace=wrap;html=1;align=center;" vertex="1" parent="1">
          <mxGeometry x="350" y="15" width="100" height="40" as="geometry" />
        </mxCell>
        <mxCell id="cyycLlXmvvTg0N1QXvkA-51" value="" style="endArrow=none;html=1;rounded=0;exitX=0;exitY=0.5;exitDx=0;exitDy=0;entryX=1;entryY=0.5;entryDx=0;entryDy=0;" edge="1" parent="1" source="cyycLlXmvvTg0N1QXvkA-50" target="cyycLlXmvvTg0N1QXvkA-2">
          <mxGeometry relative="1" as="geometry">
            <mxPoint x="250" y="65" as="sourcePoint" />
            <mxPoint x="250" y="165" as="targetPoint" />
          </mxGeometry>
        </mxCell>
        <mxCell id="cyycLlXmvvTg0N1QXvkA-52" value="Nombre" style="ellipse;whiteSpace=wrap;html=1;align=center;" vertex="1" parent="1">
          <mxGeometry x="40" y="285" width="100" height="40" as="geometry" />
        </mxCell>
        <mxCell id="cyycLlXmvvTg0N1QXvkA-53" value="HoraInicio" style="ellipse;whiteSpace=wrap;html=1;align=center;" vertex="1" parent="1">
          <mxGeometry x="130" y="395" width="100" height="40" as="geometry" />
        </mxCell>
        <mxCell id="cyycLlXmvvTg0N1QXvkA-54" value="HoraFin" style="ellipse;whiteSpace=wrap;html=1;align=center;" vertex="1" parent="1">
          <mxGeometry x="250" y="395" width="100" height="40" as="geometry" />
        </mxCell>
        <mxCell id="cyycLlXmvvTg0N1QXvkA-55" value="&lt;font style=&quot;font-size: 12px;&quot;&gt;ContrasenaMaestra&lt;/font&gt;" style="ellipse;whiteSpace=wrap;html=1;align=center;" vertex="1" parent="1">
          <mxGeometry x="40" y="345" width="100" height="40" as="geometry" />
        </mxCell>
        <mxCell id="cyycLlXmvvTg0N1QXvkA-56" value="" style="endArrow=none;html=1;rounded=0;exitX=1;exitY=0.5;exitDx=0;exitDy=0;entryX=0;entryY=0.5;entryDx=0;entryDy=0;" edge="1" parent="1" source="cyycLlXmvvTg0N1QXvkA-52" target="cyycLlXmvvTg0N1QXvkA-3">
          <mxGeometry relative="1" as="geometry">
            <mxPoint x="250" y="225" as="sourcePoint" />
            <mxPoint x="250" y="325" as="targetPoint" />
          </mxGeometry>
        </mxCell>
        <mxCell id="cyycLlXmvvTg0N1QXvkA-57" value="" style="endArrow=none;html=1;rounded=0;exitX=1;exitY=0.5;exitDx=0;exitDy=0;entryX=0;entryY=0.5;entryDx=0;entryDy=0;" edge="1" parent="1" source="cyycLlXmvvTg0N1QXvkA-55" target="cyycLlXmvvTg0N1QXvkA-3">
          <mxGeometry relative="1" as="geometry">
            <mxPoint x="150" y="325" as="sourcePoint" />
            <mxPoint x="200" y="345" as="targetPoint" />
          </mxGeometry>
        </mxCell>
        <mxCell id="cyycLlXmvvTg0N1QXvkA-58" value="" style="endArrow=none;html=1;rounded=0;exitX=0.5;exitY=0;exitDx=0;exitDy=0;entryX=0.5;entryY=1;entryDx=0;entryDy=0;" edge="1" parent="1" source="cyycLlXmvvTg0N1QXvkA-53" target="cyycLlXmvvTg0N1QXvkA-3">
          <mxGeometry relative="1" as="geometry">
            <mxPoint x="150" y="365" as="sourcePoint" />
            <mxPoint x="200" y="345" as="targetPoint" />
          </mxGeometry>
        </mxCell>
        <mxCell id="cyycLlXmvvTg0N1QXvkA-59" value="" style="endArrow=none;html=1;rounded=0;exitX=0.5;exitY=0;exitDx=0;exitDy=0;entryX=0.5;entryY=1;entryDx=0;entryDy=0;" edge="1" parent="1" source="cyycLlXmvvTg0N1QXvkA-54" target="cyycLlXmvvTg0N1QXvkA-3">
          <mxGeometry relative="1" as="geometry">
            <mxPoint x="200" y="405" as="sourcePoint" />
            <mxPoint x="250" y="365" as="targetPoint" />
          </mxGeometry>
        </mxCell>
        <mxCell id="cyycLlXmvvTg0N1QXvkA-60" value="NumeroMaquina" style="ellipse;whiteSpace=wrap;html=1;align=center;" vertex="1" parent="1">
          <mxGeometry x="765" y="185" width="100" height="40" as="geometry" />
        </mxCell>
        <mxCell id="cyycLlXmvvTg0N1QXvkA-61" value="Estado" style="ellipse;whiteSpace=wrap;html=1;align=center;" vertex="1" parent="1">
          <mxGeometry x="655" y="185" width="100" height="40" as="geometry" />
        </mxCell>
        <mxCell id="cyycLlXmvvTg0N1QXvkA-62" value="DireccionIp" style="ellipse;whiteSpace=wrap;html=1;align=center;fontStyle=4;" vertex="1" parent="1">
          <mxGeometry x="875" y="185" width="100" height="40" as="geometry" />
        </mxCell>
        <mxCell id="cyycLlXmvvTg0N1QXvkA-63" value="NombreAlumno" style="ellipse;whiteSpace=wrap;html=1;align=center;" vertex="1" parent="1">
          <mxGeometry x="545" y="185" width="100" height="40" as="geometry" />
        </mxCell>
        <mxCell id="cyycLlXmvvTg0N1QXvkA-64" value="" style="endArrow=none;html=1;rounded=0;exitX=0.5;exitY=1;exitDx=0;exitDy=0;entryX=0.5;entryY=0;entryDx=0;entryDy=0;" edge="1" parent="1" source="cyycLlXmvvTg0N1QXvkA-63" target="cyycLlXmvvTg0N1QXvkA-4">
          <mxGeometry relative="1" as="geometry">
            <mxPoint x="570" y="345" as="sourcePoint" />
            <mxPoint x="720" y="345" as="targetPoint" />
          </mxGeometry>
        </mxCell>
        <mxCell id="cyycLlXmvvTg0N1QXvkA-65" value="" style="endArrow=none;html=1;rounded=0;exitX=0.5;exitY=1;exitDx=0;exitDy=0;entryX=0.5;entryY=0;entryDx=0;entryDy=0;" edge="1" parent="1" source="cyycLlXmvvTg0N1QXvkA-61" target="cyycLlXmvvTg0N1QXvkA-4">
          <mxGeometry relative="1" as="geometry">
            <mxPoint x="605" y="235" as="sourcePoint" />
            <mxPoint x="770" y="325" as="targetPoint" />
          </mxGeometry>
        </mxCell>
        <mxCell id="cyycLlXmvvTg0N1QXvkA-66" value="" style="endArrow=none;html=1;rounded=0;exitX=0.5;exitY=1;exitDx=0;exitDy=0;entryX=0.5;entryY=0;entryDx=0;entryDy=0;" edge="1" parent="1" source="cyycLlXmvvTg0N1QXvkA-60" target="cyycLlXmvvTg0N1QXvkA-4">
          <mxGeometry relative="1" as="geometry">
            <mxPoint x="715" y="235" as="sourcePoint" />
            <mxPoint x="770" y="325" as="targetPoint" />
          </mxGeometry>
        </mxCell>
        <mxCell id="cyycLlXmvvTg0N1QXvkA-67" value="" style="endArrow=none;html=1;rounded=0;exitX=0.5;exitY=1;exitDx=0;exitDy=0;entryX=0.5;entryY=0;entryDx=0;entryDy=0;" edge="1" parent="1" source="cyycLlXmvvTg0N1QXvkA-62" target="cyycLlXmvvTg0N1QXvkA-4">
          <mxGeometry relative="1" as="geometry">
            <mxPoint x="825" y="235" as="sourcePoint" />
            <mxPoint x="770" y="325" as="targetPoint" />
          </mxGeometry>
        </mxCell>
        <mxCell id="cyycLlXmvvTg0N1QXvkA-68" value="Nombre" style="ellipse;whiteSpace=wrap;html=1;align=center;" vertex="1" parent="1">
          <mxGeometry x="710" y="715" width="100" height="40" as="geometry" />
        </mxCell>
        <mxCell id="cyycLlXmvvTg0N1QXvkA-69" value="Estatus" style="ellipse;whiteSpace=wrap;html=1;align=center;" vertex="1" parent="1">
          <mxGeometry x="600" y="735" width="100" height="40" as="geometry" />
        </mxCell>
        <mxCell id="cyycLlXmvvTg0N1QXvkA-70" value="ContraseÃ±a" style="ellipse;whiteSpace=wrap;html=1;align=center;" vertex="1" parent="1">
          <mxGeometry x="820" y="735" width="100" height="40" as="geometry" />
        </mxCell>
        <mxCell id="cyycLlXmvvTg0N1QXvkA-71" value="Nombre" style="ellipse;whiteSpace=wrap;html=1;align=center;" vertex="1" parent="1">
          <mxGeometry x="600" y="795" width="100" height="40" as="geometry" />
        </mxCell>
        <mxCell id="cyycLlXmvvTg0N1QXvkA-72" value="ApPaterno" style="ellipse;whiteSpace=wrap;html=1;align=center;" vertex="1" parent="1">
          <mxGeometry x="710" y="795" width="100" height="40" as="geometry" />
        </mxCell>
        <mxCell id="cyycLlXmvvTg0N1QXvkA-73" value="ApMaterno" style="ellipse;whiteSpace=wrap;html=1;align=center;" vertex="1" parent="1">
          <mxGeometry x="820" y="795" width="100" height="40" as="geometry" />
        </mxCell>
        <mxCell id="cyycLlXmvvTg0N1QXvkA-74" value="" style="endArrow=none;html=1;rounded=0;exitX=0.5;exitY=0;exitDx=0;exitDy=0;entryX=0.5;entryY=1;entryDx=0;entryDy=0;" edge="1" parent="1" source="cyycLlXmvvTg0N1QXvkA-69" target="cyycLlXmvvTg0N1QXvkA-5">
          <mxGeometry relative="1" as="geometry">
            <mxPoint x="680" y="585" as="sourcePoint" />
            <mxPoint x="840" y="585" as="targetPoint" />
          </mxGeometry>
        </mxCell>
        <mxCell id="cyycLlXmvvTg0N1QXvkA-75" value="" style="endArrow=none;html=1;rounded=0;exitX=0.5;exitY=0;exitDx=0;exitDy=0;entryX=0.5;entryY=1;entryDx=0;entryDy=0;" edge="1" parent="1" source="cyycLlXmvvTg0N1QXvkA-68" target="cyycLlXmvvTg0N1QXvkA-5">
          <mxGeometry relative="1" as="geometry">
            <mxPoint x="660" y="745" as="sourcePoint" />
            <mxPoint x="770" y="685" as="targetPoint" />
          </mxGeometry>
        </mxCell>
        <mxCell id="cyycLlXmvvTg0N1QXvkA-76" value="" style="endArrow=none;html=1;rounded=0;exitX=0.5;exitY=0;exitDx=0;exitDy=0;entryX=0.5;entryY=1;entryDx=0;entryDy=0;" edge="1" parent="1" source="cyycLlXmvvTg0N1QXvkA-70" target="cyycLlXmvvTg0N1QXvkA-5">
          <mxGeometry relative="1" as="geometry">
            <mxPoint x="770" y="725" as="sourcePoint" />
            <mxPoint x="770" y="685" as="targetPoint" />
          </mxGeometry>
        </mxCell>
        <mxCell id="cyycLlXmvvTg0N1QXvkA-77" value="" style="endArrow=none;html=1;rounded=0;exitX=0;exitY=0;exitDx=0;exitDy=0;entryX=0.5;entryY=1;entryDx=0;entryDy=0;" edge="1" parent="1" source="cyycLlXmvvTg0N1QXvkA-73" target="cyycLlXmvvTg0N1QXvkA-68">
          <mxGeometry relative="1" as="geometry">
            <mxPoint x="880" y="745" as="sourcePoint" />
            <mxPoint x="770" y="685" as="targetPoint" />
          </mxGeometry>
        </mxCell>
        <mxCell id="cyycLlXmvvTg0N1QXvkA-78" value="" style="endArrow=none;html=1;rounded=0;exitX=0.5;exitY=0;exitDx=0;exitDy=0;entryX=0.5;entryY=1;entryDx=0;entryDy=0;" edge="1" parent="1" source="cyycLlXmvvTg0N1QXvkA-72" target="cyycLlXmvvTg0N1QXvkA-68">
          <mxGeometry relative="1" as="geometry">
            <mxPoint x="845" y="811" as="sourcePoint" />
            <mxPoint x="770" y="765" as="targetPoint" />
          </mxGeometry>
        </mxCell>
        <mxCell id="cyycLlXmvvTg0N1QXvkA-79" value="" style="endArrow=none;html=1;rounded=0;exitX=1;exitY=0;exitDx=0;exitDy=0;entryX=0.5;entryY=1;entryDx=0;entryDy=0;" edge="1" parent="1" source="cyycLlXmvvTg0N1QXvkA-71" target="cyycLlXmvvTg0N1QXvkA-68">
          <mxGeometry relative="1" as="geometry">
            <mxPoint x="770" y="805" as="sourcePoint" />
            <mxPoint x="770" y="765" as="targetPoint" />
          </mxGeometry>
        </mxCell>
        <mxCell id="cyycLlXmvvTg0N1QXvkA-80" value="Nombre" style="ellipse;whiteSpace=wrap;html=1;align=center;" vertex="1" parent="1">
          <mxGeometry x="245" y="735" width="100" height="40" as="geometry" />
        </mxCell>
        <mxCell id="cyycLlXmvvTg0N1QXvkA-81" value="TiempoMaxUsoDiario" style="ellipse;whiteSpace=wrap;html=1;align=center;" vertex="1" parent="1">
          <mxGeometry x="135" y="735" width="100" height="40" as="geometry" />
        </mxCell>
        <mxCell id="cyycLlXmvvTg0N1QXvkA-82" value="" style="endArrow=none;html=1;rounded=0;exitX=0.5;exitY=0;exitDx=0;exitDy=0;entryX=0.5;entryY=1;entryDx=0;entryDy=0;" edge="1" parent="1" source="cyycLlXmvvTg0N1QXvkA-81" target="cyycLlXmvvTg0N1QXvkA-7">
          <mxGeometry relative="1" as="geometry">
            <mxPoint x="550" y="540" as="sourcePoint" />
            <mxPoint x="710" y="540" as="targetPoint" />
          </mxGeometry>
        </mxCell>
        <mxCell id="cyycLlXmvvTg0N1QXvkA-84" value="" style="endArrow=none;html=1;rounded=0;exitX=0.5;exitY=0;exitDx=0;exitDy=0;entryX=0.5;entryY=1;entryDx=0;entryDy=0;" edge="1" parent="1" source="cyycLlXmvvTg0N1QXvkA-80" target="cyycLlXmvvTg0N1QXvkA-7">
          <mxGeometry relative="1" as="geometry">
            <mxPoint x="195" y="745" as="sourcePoint" />
            <mxPoint x="250" y="685" as="targetPoint" />
          </mxGeometry>
        </mxCell>
        <mxCell id="cyycLlXmvvTg0N1QXvkA-86" value="FechaBloqueo" style="ellipse;whiteSpace=wrap;html=1;align=center;" vertex="1" parent="1">
          <mxGeometry x="1180" y="735" width="100" height="40" as="geometry" />
        </mxCell>
        <mxCell id="cyycLlXmvvTg0N1QXvkA-87" value="Motivo" style="ellipse;whiteSpace=wrap;html=1;align=center;" vertex="1" parent="1">
          <mxGeometry x="1290" y="735" width="100" height="40" as="geometry" />
        </mxCell>
        <mxCell id="cyycLlXmvvTg0N1QXvkA-88" value="FechaLiberacion" style="ellipse;whiteSpace=wrap;html=1;align=center;" vertex="1" parent="1">
          <mxGeometry x="1070" y="735" width="100" height="40" as="geometry" />
        </mxCell>
        <mxCell id="cyycLlXmvvTg0N1QXvkA-89" value="" style="endArrow=none;html=1;rounded=0;exitX=0.5;exitY=0;exitDx=0;exitDy=0;entryX=0.5;entryY=1;entryDx=0;entryDy=0;" edge="1" parent="1" source="cyycLlXmvvTg0N1QXvkA-86" target="cyycLlXmvvTg0N1QXvkA-6">
          <mxGeometry relative="1" as="geometry">
            <mxPoint x="1170" y="700" as="sourcePoint" />
            <mxPoint x="1330" y="700" as="targetPoint" />
          </mxGeometry>
        </mxCell>
        <mxCell id="cyycLlXmvvTg0N1QXvkA-90" value="" style="endArrow=none;html=1;rounded=0;exitX=0.5;exitY=0;exitDx=0;exitDy=0;entryX=0.5;entryY=1;entryDx=0;entryDy=0;" edge="1" parent="1" source="cyycLlXmvvTg0N1QXvkA-87" target="cyycLlXmvvTg0N1QXvkA-6">
          <mxGeometry relative="1" as="geometry">
            <mxPoint x="1240" y="745" as="sourcePoint" />
            <mxPoint x="1240" y="685" as="targetPoint" />
          </mxGeometry>
        </mxCell>
        <mxCell id="cyycLlXmvvTg0N1QXvkA-91" value="" style="endArrow=none;html=1;rounded=0;exitX=0.5;exitY=0;exitDx=0;exitDy=0;entryX=0.5;entryY=1;entryDx=0;entryDy=0;" edge="1" parent="1" source="cyycLlXmvvTg0N1QXvkA-88" target="cyycLlXmvvTg0N1QXvkA-6">
          <mxGeometry relative="1" as="geometry">
            <mxPoint x="1350" y="745" as="sourcePoint" />
            <mxPoint x="1240" y="685" as="targetPoint" />
          </mxGeometry>
        </mxCell>
        <mxCell id="cyycLlXmvvTg0N1QXvkA-93" value="1:N" style="text;strokeColor=none;fillColor=none;spacingLeft=4;spacingRight=4;overflow=hidden;rotatable=0;points=[[0,0.5],[1,0.5]];portConstraint=eastwest;fontSize=12;whiteSpace=wrap;html=1;" vertex="1" parent="1">
          <mxGeometry x="495" y="595" width="30" height="30" as="geometry" />
        </mxCell>
        <mxCell id="cyycLlXmvvTg0N1QXvkA-94" value="1..N" style="text;strokeColor=none;fillColor=none;spacingLeft=4;spacingRight=4;overflow=hidden;rotatable=0;points=[[0,0.5],[1,0.5]];portConstraint=eastwest;fontSize=12;whiteSpace=wrap;html=1;" vertex="1" parent="1">
          <mxGeometry x="670" y="655" width="40" height="30" as="geometry" />
        </mxCell>
        <mxCell id="cyycLlXmvvTg0N1QXvkA-95" value="1..1" style="text;strokeColor=none;fillColor=none;spacingLeft=4;spacingRight=4;overflow=hidden;rotatable=0;points=[[0,0.5],[1,0.5]];portConstraint=eastwest;fontSize=12;whiteSpace=wrap;html=1;" vertex="1" parent="1">
          <mxGeometry x="290" y="655" width="40" height="30" as="geometry" />
        </mxCell>
        <mxCell id="cyycLlXmvvTg0N1QXvkA-96" value="1..N" style="text;strokeColor=none;fillColor=none;spacingLeft=4;spacingRight=4;overflow=hidden;rotatable=0;points=[[0,0.5],[1,0.5]];portConstraint=eastwest;fontSize=12;whiteSpace=wrap;html=1;" vertex="1" parent="1">
          <mxGeometry x="1140" y="655" width="40" height="30" as="geometry" />
        </mxCell>
        <mxCell id="cyycLlXmvvTg0N1QXvkA-97" value="1..1" style="text;strokeColor=none;fillColor=none;spacingLeft=4;spacingRight=4;overflow=hidden;rotatable=0;points=[[0,0.5],[1,0.5]];portConstraint=eastwest;fontSize=12;whiteSpace=wrap;html=1;" vertex="1" parent="1">
          <mxGeometry x="810" y="655" width="40" height="30" as="geometry" />
        </mxCell>
        <mxCell id="cyycLlXmvvTg0N1QXvkA-98" value="1:N" style="text;strokeColor=none;fillColor=none;spacingLeft=4;spacingRight=4;overflow=hidden;rotatable=0;points=[[0,0.5],[1,0.5]];portConstraint=eastwest;fontSize=12;whiteSpace=wrap;html=1;" vertex="1" parent="1">
          <mxGeometry x="1005" y="595" width="30" height="30" as="geometry" />
        </mxCell>
      </root>
    </mxGraphModel>
  </diagram>
</mxfile>
